<svg width="1024" height="1024" viewBox="0 0 1024 1024" fill="none" xmlns="http://www.w3.org/2000/svg">
<rect x="12.5" y="12.5" width="999" height="999" rx="198.5" fill="url(#paint0_linear_1_26)" stroke="url(#paint1_linear_1_26)" stroke-width="25"/>
<path d="M497.778 221.277C499.093 218.492 501.124 216.147 503.641 214.508C506.159 212.869 509.063 212 512.027 212C514.99 212 517.895 212.869 520.413 214.508C522.93 216.147 524.961 218.492 526.276 221.277L595.569 368.477C600.134 378.165 606.873 386.547 615.206 392.904C623.54 399.26 633.22 403.401 643.415 404.97L798.381 428.753C801.317 429.2 804.076 430.499 806.345 432.503C808.614 434.508 810.303 437.139 811.221 440.098C812.138 443.057 812.248 446.226 811.538 449.247C810.827 452.268 809.325 455.021 807.2 457.193L695.13 571.643C687.74 579.197 682.21 588.521 679.017 598.812C675.824 609.104 675.064 620.056 676.802 630.724L703.26 792.427C703.778 795.505 703.461 798.673 702.345 801.571C701.229 804.469 699.358 806.98 696.947 808.817C694.535 810.654 691.68 811.743 688.707 811.96C685.734 812.177 682.762 811.513 680.132 810.044L541.604 733.66C532.477 728.634 522.321 726.007 512.012 726.007C501.702 726.007 491.547 728.634 482.42 733.66L343.922 810.044C341.292 811.504 338.325 812.161 335.356 811.94C332.388 811.718 329.539 810.628 327.132 808.792C324.726 806.957 322.859 804.45 321.744 801.557C320.629 798.664 320.31 795.5 320.824 792.427L347.252 630.756C348.998 620.082 348.241 609.124 345.048 598.826C341.855 588.527 336.321 579.198 328.923 571.643L216.854 457.224C214.712 455.055 213.194 452.298 212.473 449.267C211.752 446.237 211.857 443.056 212.776 440.085C213.695 437.114 215.392 434.474 217.672 432.465C219.952 430.456 222.724 429.159 225.673 428.722L380.609 404.97C390.816 403.413 400.509 399.278 408.854 392.921C417.199 386.563 423.946 378.175 428.514 368.477L497.778 221.277Z" stroke="#582770" stroke-width="45" stroke-linecap="round" stroke-linejoin="round"/>
<defs>
<linearGradient id="paint0_linear_1_26" x1="79.5" y1="27" x2="903" y2="992.5" gradientUnits="userSpaceOnUse">
<stop stop-color="#D2D2D2"/>
<stop offset="1" stop-color="white"/>
</linearGradient>
<linearGradient id="paint1_linear_1_26" x1="112" y1="22" x2="907.5" y2="981" gradientUnits="userSpaceOnUse">
<stop stop-color="#FAFAFA"/>
<stop offset="1" stop-color="#CECECE"/>
</linearGradient>
</defs>
</svg>
